<?xml version="1.0" encoding="UTF-8"?>
<svg version="1.1" xmlns="http://www.w3.org/2000/svg" width="341" height="302">
<path d="M0 0 C112.53 0 225.06 0 341 0 C341 99.66 341 199.32 341 302 C228.47 302 115.94 302 0 302 C0 202.34 0 102.68 0 0 Z " fill="#1B2435" transform="translate(0,0)"/>
<path d="M0 0 C112.53 0 225.06 0 341 0 C341 99.66 341 199.32 341 302 C228.47 302 115.94 302 0 302 C0 202.34 0 102.68 0 0 Z M264.9375 31.75 C263.87179487 33.90144231 263.87179487 33.90144231 264 36 C262.10726852 35.89724007 262.10726852 35.89724007 260.17630005 35.79240417 C226.62687075 33.97119086 193.07706683 32.15699675 159.52679443 30.35137939 C155.46985409 30.13302658 151.41292618 29.91444647 147.35601807 29.69549561 C138.72119848 29.22952537 130.08625971 28.76618732 121.4508667 28.3109436 C119.13752519 28.18851088 116.82424961 28.06482511 114.51104736 27.93978882 C88.82902846 25.15289313 88.82902846 25.15289313 66.125 34.8125 C55.48244254 44.9858089 55.62118152 57.96851884 54.94677734 71.78808594 C54.85846025 73.48261847 54.76947841 75.17711646 54.67988586 76.87158203 C54.43955938 81.45408132 54.20874166 86.0370143 53.97985029 90.62009716 C53.73806913 95.43223661 53.48808411 100.24395051 53.23916626 105.0557251 C52.8222281 113.13877979 52.41113974 121.22211492 52.00390625 129.30566406 C51.53439962 138.62458734 51.05730476 147.94309657 50.57573545 157.2614038 C50.06143153 167.21402056 49.55225144 177.16689447 49.04479647 187.11986256 C48.89906411 189.97211109 48.75244002 192.82431265 48.60563278 195.67650604 C48.37424004 200.1776429 48.1463404 204.67894432 47.92102623 209.1803894 C47.83830931 210.82302776 47.75450171 212.46561166 47.6694622 214.10813141 C45.64780083 238.67812218 45.64780083 238.67812218 56.4140625 259.9296875 C63.5826161 265.66886183 70.7278262 267.75386248 79.765625 268.16015625 C80.86022034 268.22711197 81.95481567 268.29406769 83.08258057 268.36305237 C86.31232307 268.55441652 89.5424948 268.72399346 92.77383423 268.8857193 C95.99899199 269.05128347 99.223109 269.23433547 102.44738674 269.4161253 C114.15980542 270.07567842 125.87485512 270.68034945 137.59064865 271.27643204 C141.84974053 271.49356624 146.10871459 271.71296653 150.3676939 271.9322958 C163.9113923 272.62953772 177.45556392 273.31725016 191 274 C191.89768852 274.04527328 192.79537704 274.09054657 193.72026825 274.13719177 C203.64650092 274.63755569 213.57293509 275.13357507 223.49987793 275.61965942 C226.10203723 275.74709723 228.70416999 275.87507813 231.30627441 276.00363159 C234.84860166 276.17802353 238.39106136 276.34936389 241.93359375 276.51953125 C243.44091316 276.59414078 243.44091316 276.59414078 244.97868347 276.67025757 C262.30541831 277.70445561 262.30541831 277.70445561 277.3125 269.9375 C285.53455452 261.99985617 287.8470199 253.68775102 288.41723633 242.53297424 C288.48447906 241.25062393 288.5517218 239.96827362 288.6210022 238.64706421 C288.69140724 237.23810124 288.76174812 235.82913507 288.83203125 234.42016602 C288.90907441 232.92638126 288.98642413 231.43261229 289.0640564 229.93885803 C289.23029941 226.72731399 289.3943671 223.51566888 289.55673218 220.30392647 C289.81413832 215.21220214 290.07632384 210.12073063 290.33911133 205.02928162 C290.7549111 196.9620205 291.16740142 188.89459401 291.57853794 180.82709402 C292.31299569 166.41731092 293.05305582 152.00781499 293.7943182 137.59838051 C294.05381743 132.55143183 294.31189297 127.50441302 294.56872559 122.45732796 C294.72979369 119.2957427 294.89178886 116.13420536 295.05397415 112.97267723 C295.12814393 111.52285449 295.20192315 110.0730117 295.27524948 108.62314606 C295.44075507 105.35213929 295.61234567 102.08172065 295.79550171 98.81164742 C295.93837782 96.14857686 296.05980106 93.49034191 296.15982056 90.82584953 C296.22248381 89.46993769 296.28549102 88.1140417 296.34887695 86.75816345 C296.42027641 84.95041899 296.42027641 84.95041899 296.49311829 83.10615444 C297.18483078 78.86736305 298.92293166 77.20460273 302.15625 74.57421875 C309.92745407 67.93905934 311.24655607 56.49120925 312.35546875 46.9375 C312.65310049 41.14574713 311.72898946 37.37544424 308.484375 32.55859375 C306.81018043 30.80068945 305.21771476 29.95248006 303 29 C303 28.34 303 27.68 303 27 C290.20883833 21.03079122 274.13354129 19.48861162 264.9375 31.75 Z " fill="#061027" transform="translate(0,0)"/>
<path d="M0 0 C0 0.66 0 1.32 0 2 C0.60328125 2.25910156 1.2065625 2.51820312 1.828125 2.78515625 C5.61216381 4.90176789 7.37237036 8.05364401 9 12 C10.44324533 20.48574803 8.84775636 31.44009473 4.93359375 39.08203125 C1.68025927 43.32317686 -3.07137448 45.90176543 -8 47.75 C-17.08996788 48.88624598 -27.22672025 46.7142398 -35.0625 41.875 C-39.59780061 38.13395254 -42.5760002 32.37569073 -43.3046875 26.57421875 C-43.3125 24.375 -43.3125 24.375 -43 21 C-42.34 21 -41.68 21 -41 21 C-40.95101563 20.43152344 -40.90203125 19.86304687 -40.8515625 19.27734375 C-40.0853881 11.36461159 -39.384607 5.36887407 -33 0 C-32.154375 -0.763125 -31.30875 -1.52625 -30.4375 -2.3125 C-20.89476009 -6.99711777 -9.5396025 -3.1798675 0 0 Z " fill="#0553FA" transform="translate(303,27)"/>
<path d="M0 0 C4.00266782 2.57452654 6.67518289 6.07412603 8.91796875 10.23364258 C9.825581 14.60902526 9.76628149 18.78193751 9.60546875 23.23364258 C9.60740234 24.35770508 9.60933594 25.48176758 9.61132812 26.63989258 C9.47029917 34.96546402 7.88367443 42.99676846 1.91796875 49.23364258 C1.25796875 49.23364258 0.59796875 49.23364258 -0.08203125 49.23364258 C-0.08203125 49.89364258 -0.08203125 50.55364258 -0.08203125 51.23364258 C-8.10558753 54.08646259 -15.79407319 54.67063516 -23.64453125 50.98364258 C-27.08221523 49.2015472 -28.64900138 47.85882084 -30.08203125 44.23364258 C-30.74203125 44.23364258 -31.40203125 44.23364258 -32.08203125 44.23364258 C-33.26452256 38.94693329 -33.26593399 33.87953131 -33.26953125 28.48364258 C-33.28177734 27.53231445 -33.29402344 26.58098633 -33.30664062 25.60083008 C-33.33923889 9.73634075 -33.33923889 9.73634075 -27.76953125 3.79614258 C-27.19589844 3.15805664 -26.62226563 2.5199707 -26.03125 1.86254883 C-19.51187951 -3.58550226 -7.51850137 -3.65064533 0 0 Z " fill="#F5F5F6" transform="translate(160.08203125,124.766357421875)"/>
<path d="M0 0 C1.46043666 0.87966401 2.90262087 1.79139431 4.3125 2.75 C5.17875 3.28625 6.045 3.8225 6.9375 4.375 C9.35490984 8.55052609 9.00541043 13.07285458 8.3125 17.75 C6.50651726 20.97496917 5.52355384 22.312675 2.0625 23.5625 C1.485 23.624375 0.9075 23.68625 0.3125 23.75 C0.910625 24.348125 1.50875 24.94625 2.125 25.5625 C2.846875 26.284375 3.56875 27.00625 4.3125 27.75 C4.869375 28.28625 5.42625 28.8225 6 29.375 C8.64606553 32.14706865 8.65676895 34.84616437 8.58203125 38.58984375 C8.12082439 42.28618277 6.82791261 45.00464663 4.3125 47.75 C-2.92057481 52.55264525 -10.1387074 53.5242703 -18.6875 52.75 C-23.83523002 51.28464322 -28.37077885 49.07615802 -31.6875 44.75 C-31.6875 44.09 -31.6875 43.43 -31.6875 42.75 C-32.3475 42.75 -33.0075 42.75 -33.6875 42.75 C-34.25464817 31.93217372 -34.25464817 31.93217372 -30.6875 27.75 C-28 25.4375 -28 25.4375 -25.6875 23.75 C-26.491875 23.13125 -27.29625 22.5125 -28.125 21.875 C-30.7928449 19.66264081 -31.5562952 18.94589948 -31.92578125 15.578125 C-32.09295556 9.7710173 -31.81851427 6.1987846 -27.6875 1.75 C-20.1566134 -4.60941535 -8.61864794 -4.13030161 0 0 Z " fill="#F4F5F5" transform="translate(254.6875,130.25)"/>
<path d="M0 0 C2.65460183 0.00816801 4.93875856 0.34612186 7.5390625 0.8828125 C10.20266213 1.24433652 12.87031808 1.56052769 15.5390625 1.8828125 C15.66724568 13.26263075 15.33474452 24.53013508 14.5390625 35.8828125 C17.1790625 35.8828125 19.8190625 35.8828125 22.5390625 35.8828125 C22.5390625 38.8528125 22.5390625 41.8228125 22.5390625 44.8828125 C19.5690625 44.8828125 16.5990625 44.8828125 13.5390625 44.8828125 C13.5390625 48.1828125 13.5390625 51.4828125 13.5390625 54.8828125 C5.82421875 54.98046875 5.82421875 54.98046875 3.5390625 54.8828125 C3.0440625 54.3878125 3.0440625 54.3878125 2.5390625 53.8828125 C2.5390625 50.5828125 2.5390625 47.2828125 2.5390625 43.8828125 C-5.7109375 43.8828125 -13.9609375 43.8828125 -22.4609375 43.8828125 C-22.4609375 39.2628125 -22.4609375 34.6428125 -22.4609375 29.8828125 C-21.8009375 29.5528125 -21.1409375 29.2228125 -20.4609375 28.8828125 C-18.90071924 26.18586379 -17.50919712 23.4198451 -16.09375 20.64453125 C-14.4609375 17.8828125 -14.4609375 17.8828125 -12.4921875 15.94921875 C-9.8964096 13.30851392 -8.54661373 10.4085755 -6.8359375 7.1328125 C-3.47746326 1.24747095 -3.47746326 1.24747095 0 0 Z " fill="#F1F2F3" transform="translate(195.4609375,125.1171875)"/>
<path d="M0 0 C2.07888541 0.9369058 3.76544717 1.97183066 5.58203125 3.34765625 C6.18144531 3.79882812 6.78085938 4.25 7.3984375 4.71484375 C10.35383912 7.47139004 11.45126547 9.52282597 12.08984375 13.55078125 C12.38688753 22.38288311 12.38688753 22.38288311 9.79296875 25.4921875 C9.06335938 26.10449219 8.33375 26.71679688 7.58203125 27.34765625 C7.02644531 28.02570313 6.47085938 28.70375 5.8984375 29.40234375 C2.49572307 32.2599353 -1.26897415 33.20820434 -5.48046875 34.47265625 C-7.09760533 34.9712201 -8.71354871 35.47367488 -10.328125 35.98046875 C-11.04105713 36.19590332 -11.75398926 36.41133789 -12.48852539 36.63330078 C-14.69619424 37.36609087 -14.69619424 37.36609087 -17.41796875 39.34765625 C-17.74796875 40.66765625 -18.07796875 41.98765625 -18.41796875 43.34765625 C-4.55796875 43.84265625 -4.55796875 43.84265625 9.58203125 44.34765625 C9.58203125 47.31765625 9.58203125 50.28765625 9.58203125 53.34765625 C-3.43430799 53.55722164 -16.41762804 52.9234075 -29.41796875 52.34765625 C-29.4587246 50.60175851 -29.48767852 48.8555829 -29.51171875 47.109375 C-29.52912109 46.13701904 -29.54652344 45.16466309 -29.56445312 44.1628418 C-29.36245191 40.2807152 -28.23354308 37.75185813 -26.41796875 34.34765625 C-25.75796875 34.34765625 -25.09796875 34.34765625 -24.41796875 34.34765625 C-24.41796875 33.68765625 -24.41796875 33.02765625 -24.41796875 32.34765625 C-18.68482886 28.07590496 -13.04763586 26.11560494 -6.17578125 24.2421875 C-3.31124427 23.54389143 -3.31124427 23.54389143 -1.41796875 21.34765625 C-1.13669252 19.01059486 -1.13669252 19.01059486 -1.23046875 16.41015625 C-1.23691406 15.53488281 -1.24335937 14.65960938 -1.25 13.7578125 C-1.32727632 11.20388875 -1.32727632 11.20388875 -2.41796875 8.34765625 C-6.95155908 7.99208054 -10.34552122 7.76674717 -14.41796875 9.97265625 C-16.79270082 12.79265058 -17.17007593 14.71189496 -17.41796875 18.34765625 C-20.71796875 18.01765625 -24.01796875 17.68765625 -27.41796875 17.34765625 C-27.29829887 8.49208541 -27.29829887 8.49208541 -24.93359375 5.41796875 C-23.15318109 3.88863992 -21.41877002 2.57382017 -19.41796875 1.34765625 C-18.81082031 0.97382812 -18.20367187 0.6 -17.578125 0.21484375 C-12.28527612 -1.90995272 -5.43595431 -1.46656603 0 0 Z " fill="#F3F4F5" transform="translate(110.41796875,121.65234375)"/>
<path d="M0 0 C3.46637962 0.54918791 5.65685301 2.12258287 8.29296875 4.36328125 C10.2763899 8.33012356 9.5217058 13.31421863 9.54296875 17.67578125 C9.56359375 18.72185547 9.58421875 19.76792969 9.60546875 20.84570312 C9.610625 21.85826172 9.61578125 22.87082031 9.62109375 23.9140625 C9.6351123 25.30105347 9.6351123 25.30105347 9.64941406 26.71606445 C9.10840414 30.73398949 7.3268479 33.38528746 4.4140625 36.140625 C1.90733097 37.58557338 0.23908083 37.85913382 -2.64453125 37.92578125 C-3.47855469 37.96832031 -4.31257812 38.01085937 -5.171875 38.0546875 C-8.20211422 37.22825862 -9.84598758 35.90667602 -11.73657227 33.40258789 C-13.77641183 29.11610238 -13.33572776 24.44848014 -13.20703125 19.80078125 C-13.20960938 18.77275391 -13.2121875 17.74472656 -13.21484375 16.68554688 C-13.09445863 7.39783509 -13.09445863 7.39783509 -9.70703125 3.36328125 C-9.23910156 2.77417969 -8.77117187 2.18507812 -8.2890625 1.578125 C-5.65695113 -0.44307657 -3.20639972 -0.0993827 0 0 Z " fill="#49505D" transform="translate(149.70703125,131.63671875)"/>
<path d="M0 0 C1.61862163 1.53026016 3.01168229 2.95364833 4.26171875 4.80078125 C4.26171875 7.86328125 4.26171875 7.86328125 3.26171875 10.80078125 C3.03484375 11.70828125 2.80796875 12.61578125 2.57421875 13.55078125 C1.26171875 15.80078125 1.26171875 15.80078125 -1.48828125 17.11328125 C-9.19051356 18.74259962 -9.19051356 18.74259962 -12.484375 16.73828125 C-14.94338278 14.64840859 -16.62177069 13.06783357 -16.92578125 9.76171875 C-16.5199555 6.37561016 -15.56772202 3.10386396 -14.73828125 -0.19921875 C-13.32450343 -0.56474678 -11.90707549 -0.9161737 -10.48828125 -1.26171875 C-9.699375 -1.45894531 -8.91046875 -1.65617187 -8.09765625 -1.859375 C-4.76863945 -2.3388857 -2.76786124 -1.90951326 0 0 Z " fill="#E6EEFF" transform="translate(292.73828125,41.19921875)"/>
<path d="M0 0 C5.09090909 2.09090909 5.09090909 2.09090909 7 4 C7.52307119 7.83585542 7.27113549 9.56992302 5.1875 12.875 C1.1576781 15.56154794 -1.62216457 15.77366249 -6.39453125 15.5546875 C-9.19369415 14.95876376 -10.28992034 14.41125573 -12.1875 12.3125 C-14.88848039 7.37622549 -14.88848039 7.37622549 -14 4 C-10.07195328 -0.68831382 -5.7144586 -0.86369673 0 0 Z " fill="#4B515E" transform="translate(245,159)"/>
<path d="M0 0 C0.66 0 1.32 0 2 0 C1.67 8.91 1.34 17.82 1 27 C-4.61 27 -10.22 27 -16 27 C-14.88312487 22.53249948 -12.8200892 19.47265973 -10.25 15.75 C-9.33748403 14.41087634 -8.42601546 13.07103832 -7.515625 11.73046875 C-7.07927734 11.08899902 -6.64292969 10.4475293 -6.19335938 9.78662109 C-4.72397507 7.58675318 -3.35431999 5.33465734 -2 3.0625 C-1.01 1.5465625 -1.01 1.5465625 0 0 Z " fill="#4D5460" transform="translate(199,133)"/>
<path d="M0 0 C3.1875 1.5625 3.1875 1.5625 5 4 C5.3125 7.75 5.3125 7.75 5 11 C1.62533835 13.02804186 -1.08889024 13.32611113 -5 13.375 C-6.03125 13.40335938 -7.0625 13.43171875 -8.125 13.4609375 C-11.69099264 12.88921585 -12.83261536 11.8370247 -15 9 C-15.5 5.9375 -15.5 5.9375 -15 3 C-10.67826417 -1.2319076 -5.68591786 -0.74017866 0 0 Z " fill="#4E5461" transform="translate(248,137)"/>
<path d="M0 0 C2.18796783 1.05346599 4.23378691 2.15077852 6.27734375 3.46875 C12.56041128 7.00241208 20.84154648 8.82597541 28 8 C30.74114883 7.1561762 33.35748546 6.10870719 36 5 C36.99 4.67 37.98 4.34 39 4 C39.33 3.01 39.66 2.02 40 1 C40.495 2.485 40.495 2.485 41 4 C39.54540569 5.64913882 38.08620743 7.29421782 36.625 8.9375 C35.81289063 9.85402344 35.00078125 10.77054688 34.1640625 11.71484375 C32 14 32 14 30 15 C29.67 13.68 29.34 12.36 29 11 C28.195625 11.4640625 28.195625 11.4640625 27.375 11.9375 C23.49600197 13.67284123 20.35111179 14.33027177 16.1875 13.3125 C14 12 14 12 13.1875 9.875 C13.125625 9.25625 13.06375 8.6375 13 8 C11.02 8 9.04 8 7 8 C7 7.34 7 6.68 7 6 C6.401875 5.938125 5.80375 5.87625 5.1875 5.8125 C2.12856542 4.6763243 1.44958901 2.82669858 0 0 Z " fill="#123785" transform="translate(265,66)"/>
<path d="M0 0 C1.93271748 1.83608161 3.37051934 3.87262247 5 6 C3.02 6.33 1.04 6.66 -1 7 C-1 6.01 -1 5.02 -1 4 C-3.49064888 3.31292445 -5.37886292 3 -8 3 C-8 3.66 -8 4.32 -8 5 C-8.99 5 -9.98 5 -11 5 C-11.16677282 8.41656024 -11.16677282 8.41656024 -11 12 C-10.34 12.66 -9.68 13.32 -9 14 C-8.34 13.34 -7.68 12.68 -7 12 C-7.33 13.65 -7.66 15.3 -8 17 C-6.35 17.33 -4.7 17.66 -3 18 C-3 18.33 -3 18.66 -3 19 C-5.97506963 19.42500995 -8.1356967 19.51514766 -10.76953125 17.9453125 C-13.20280372 15.83685626 -14.88407148 14.26072264 -15.1875 10.9609375 C-14.78167425 7.57482891 -13.82944077 4.30308271 -13 1 C-11.58622218 0.63447197 -10.16879424 0.28304505 -8.75 -0.0625 C-7.96109375 -0.25972656 -7.1721875 -0.45695312 -6.359375 -0.66015625 C-3.81325074 -1.02689931 -2.38091212 -0.95236485 0 0 Z " fill="#D1DFFF" transform="translate(291,40)"/>
<path d="M0 0 C0.66 0.99 1.32 1.98 2 3 C0.68 3.33 -0.64 3.66 -2 4 C-2 5.32 -2 6.64 -2 8 C-3.32 8 -4.64 8 -6 8 C-5.67 6.68 -5.34 5.36 -5 4 C-5.66 3.67 -6.32 3.34 -7 3 C-7 5.97 -7 8.94 -7 12 C-8.32 11.01 -9.64 10.02 -11 9 C-10.67 6.69 -10.34 4.38 -10 2 C-9.01 2 -8.02 2 -7 2 C-7 1.34 -7 0.68 -7 0 C-3.86559131 -1.0448029 -2.97903963 -1.15317663 0 0 Z " fill="#94B6FF" transform="translate(290,43)"/>
<path d="M0 0 C0.95465783 2.16967689 1.14401212 3.56328793 0.3984375 5.82421875 C-0.35870385 7.5684743 -1.17609198 9.28627131 -2 11 C-4.64 10.67 -7.28 10.34 -10 10 C-8.74359102 6.23077307 -6.99175638 4.574302 -4 2 C-2.68 2 -1.36 2 0 2 C0 1.34 0 0.68 0 0 Z " fill="#C7D8FF" transform="translate(296,46)"/>
<path d="M0 0 C0.66 0 1.32 0 2 0 C1.67 8.91 1.34 17.82 1 27 C-4.61 27 -10.22 27 -16 27 C-15.505 25.515 -15.505 25.515 -15 24 C-15 24.66 -15 25.32 -15 26 C-10.05 26 -5.1 26 0 26 C-0.08378906 24.29070312 -0.16757813 22.58140625 -0.25390625 20.8203125 C-0.35705472 18.58855477 -0.45990384 16.35678319 -0.5625 14.125 C-0.61857422 12.99707031 -0.67464844 11.86914062 -0.73242188 10.70703125 C-0.80493164 9.09248047 -0.80493164 9.09248047 -0.87890625 7.4453125 C-0.9260376 6.45031738 -0.97316895 5.45532227 -1.02172852 4.43017578 C-1 2 -1 2 0 0 Z " fill="#93979E" transform="translate(199,133)"/>
<path d="M0 0 C0 0.33 0 0.66 0 1 C-0.65226562 1.17015625 -1.30453125 1.3403125 -1.9765625 1.515625 C-11.52370036 4.16291396 -16.78135354 8.41987473 -23 16 C-23.33 15.01 -23.66 14.02 -24 13 C-19.07134025 4.49494815 -9.81812117 -1.06718708 0 0 Z " fill="#242F41" transform="translate(85,28)"/>
<path d="M0 0 C0.99 0.33 1.98 0.66 3 1 C2.95875 1.94875 2.9175 2.8975 2.875 3.875 C2.65026182 7.10244856 2.65026182 7.10244856 5 9 C5.66 8.34 6.32 7.68 7 7 C6.67 8.65 6.34 10.3 6 12 C7.65 12.33 9.3 12.66 11 13 C11 13.33 11 13.66 11 14 C8.02493037 14.42500995 5.8643033 14.51514766 3.23046875 12.9453125 C1.42857783 11.38395503 0.17838556 10.0784808 -1 8 C-1.20703064 5.03786936 -0.70872877 2.93616204 0 0 Z " fill="#BDD2FF" transform="translate(277,45)"/>
<path d="M0 0 C0.33 0.99 0.66 1.98 1 3 C-0.47582808 4.66962369 -1.95574891 6.3356306 -3.4375 8 C-4.26121094 8.928125 -5.08492188 9.85625 -5.93359375 10.8125 C-6.61550781 11.534375 -7.29742187 12.25625 -8 13 C-8.33 13 -8.66 13 -9 13 C-9.375 10.25 -9.375 10.25 -9 7 C-4.15789474 3 -4.15789474 3 -1 3 C-0.67 2.01 -0.34 1.02 0 0 Z " fill="#082566" transform="translate(305,67)"/>
<path d="M0 0 C4.95 0 9.9 0 15 0 C11.43684522 3.56315478 9.92821046 3.74509256 5 4 C2.0625 3.0625 2.0625 3.0625 0 2 C0 1.34 0 0.68 0 0 Z " fill="#0D2B6A" transform="translate(279,76)"/>
<path d="M0 0 C-0.65226562 0.25394531 -1.30453125 0.50789062 -1.9765625 0.76953125 C-9.16101765 3.51993774 -9.16101765 3.51993774 -16 7 C-16.33 7.99 -16.66 8.98 -17 10 C-17.66 10 -18.32 10 -19 10 C-19.0625 7.75 -19.0625 7.75 -18 5 C-13.80733369 2.35152771 -4.69631873 -2.34815936 0 0 Z " fill="#767C86" transform="translate(111,155)"/>
<path d="M0 0 C2.97 0 5.94 0 9 0 C9 0.99 9 1.98 9 3 C9.66 3 10.32 3 11 3 C11 4.98 11 6.96 11 9 C10.01 9.33 9.02 9.66 8 10 C8 7.03 8 4.06 8 1 C5.36 1 2.72 1 0 1 C0 0.67 0 0.34 0 0 Z " fill="#646A74" transform="translate(210,160)"/>
<path d="M0 0 C0.66 0 1.32 0 2 0 C2.05416188 1.60379341 2.09286638 3.20811406 2.125 4.8125 C2.14820313 5.70582031 2.17140625 6.59914062 2.1953125 7.51953125 C2 10 2 10 0 13 C-0.19466332 11.20909747 -0.38051213 9.41723495 -0.5625 7.625 C-0.66691406 6.62726563 -0.77132812 5.62953125 -0.87890625 4.6015625 C-1 2 -1 2 0 0 Z " fill="#80848D" transform="translate(199,133)"/>
<path d="M0 0 C-0.33 1.98 -0.66 3.96 -1 6 C-2.98 6.33 -4.96 6.66 -7 7 C-5.84933177 3.5479953 -4.01648928 0 0 0 Z " fill="#286CFF" transform="translate(293,49)"/>
<path d="M0 0 C0.66 0.33 1.32 0.66 2 1 C0.88121617 2.17262904 -0.24523051 3.33795138 -1.375 4.5 C-2.00148438 5.1496875 -2.62796875 5.799375 -3.2734375 6.46875 C-5 8 -5 8 -7 8 C-5.50902342 4.2047869 -3.24299151 2.38957269 0 0 Z " fill="#DFE0E3" transform="translate(91,123)"/>
<path d="M0 0 C0.66 0 1.32 0 2 0 C2.33 2.97 2.66 5.94 3 9 C1.68 8.01 0.36 7.02 -1 6 C-0.67 4.02 -0.34 2.04 0 0 Z " fill="#3071FF" transform="translate(280,46)"/>
<path d="M0 0 C0.66 0.99 1.32 1.98 2 3 C-0.97 2.67 -3.94 2.34 -7 2 C-7 1.34 -7 0.68 -7 0 C-3.86559131 -1.0448029 -2.97903963 -1.15317663 0 0 Z " fill="#1D65FF" transform="translate(290,43)"/>
<path d="M0 0 C0.66 0.99 1.32 1.98 2 3 C0.68 5.31 -0.64 7.62 -2 10 C-2.66 9.34 -3.32 8.68 -4 8 C-2.68 5.36 -1.36 2.72 0 0 Z " fill="#161D2D" transform="translate(284,255)"/>
<path d="M0 0 C0.33 0.66 0.66 1.32 1 2 C-0.65 4.31 -2.3 6.62 -4 9 C-4.99 8.67 -5.98 8.34 -7 8 C-7 7.34 -7 6.68 -7 6 C-5.33720673 4.9935725 -3.67016516 3.99414593 -2 3 C-1.34 2.01 -0.68 1.02 0 0 Z " fill="#606570" transform="translate(262,148)"/>
<path d="M0 0 C2.97 0 5.94 0 9 0 C9 0.66 9 1.32 9 2 C6.69 2.66 4.38 3.32 2 4 C1.34 2.68 0.68 1.36 0 0 Z " fill="#F3F7FF" transform="translate(287,46)"/>
</svg>
